<svg width="185" height="40" viewBox="0 0 185 40" fill="none" xmlns="http://www.w3.org/2000/svg">
<g clip-path="url(#clip0_5123_2683)">
<path d="M19.5498 10.8365C19.6996 10.8291 19.8497 10.8254 20 10.8254C20.1503 10.8254 20.3004 10.8291 20.4502 10.8365L20.9268 1.13386C20.6184 1.11871 20.3094 1.11111 20 1.11111C19.6906 1.11111 19.3816 1.11871 19.0732 1.13386L19.5498 10.8365Z" fill="url(#paint0_linear_5123_2683)"/>
<path d="M17.7707 11.1004C18.062 11.0274 18.3567 10.9688 18.6538 10.9247L17.2284 1.31555C16.6169 1.40627 16.0101 1.52696 15.4104 1.67719L17.7707 11.1004Z" fill="url(#paint1_linear_5123_2683)"/>
<path d="M21.3462 10.9247C21.6432 10.9688 21.9379 11.0274 22.2292 11.1004L24.5896 1.67719C23.9899 1.52696 23.3831 1.40627 22.7716 1.31556L21.3462 10.9247Z" fill="url(#paint2_linear_5123_2683)"/>
<path d="M16.489 11.5238C16.6278 11.4663 16.768 11.4122 16.9092 11.3617L13.6365 2.21528C13.3458 2.3193 13.0574 2.43054 12.7715 2.54894C12.4856 2.66735 12.2031 2.79263 11.9239 2.92464L16.0773 11.7063C16.2129 11.6421 16.3501 11.5813 16.489 11.5238Z" fill="url(#paint3_linear_5123_2683)"/>
<path d="M23.0908 11.3617C23.232 11.4122 23.3721 11.4663 23.511 11.5238C23.6498 11.5813 23.7871 11.6421 23.9226 11.7063L28.076 2.92465C27.7969 2.79263 27.5143 2.66735 27.2285 2.54894C26.9426 2.43054 26.6542 2.3193 26.3635 2.21528L23.0908 11.3617Z" fill="url(#paint4_linear_5123_2683)"/>
<path d="M14.5347 12.6309C14.7759 12.452 15.0257 12.2851 15.2833 12.1307L10.2892 3.79846C9.75884 4.11631 9.24447 4.46 8.74786 4.8283L14.5347 12.6309Z" fill="url(#paint5_linear_5123_2683)"/>
<path d="M24.7167 12.1307C24.9742 12.2851 25.2241 12.452 25.4653 12.6309L31.2521 4.8283C30.7555 4.46001 30.2411 4.11631 29.7108 3.79846L24.7167 12.1307Z" fill="url(#paint6_linear_5123_2683)"/>
<path d="M13.5126 13.5126C13.6188 13.4063 13.7276 13.3028 13.8387 13.2021L7.31495 6.00426C7.08619 6.21162 6.86229 6.42477 6.64352 6.64354C6.42474 6.86232 6.21159 7.08621 6.00423 7.31498L13.202 13.8387C13.3027 13.7276 13.4063 13.6188 13.5126 13.5126Z" fill="url(#paint7_linear_5123_2683)"/>
<path d="M26.1613 13.2021C26.2724 13.3028 26.3812 13.4063 26.4874 13.5126C26.5937 13.6188 26.6972 13.7276 26.7979 13.8387L33.9957 7.31498C33.7884 7.08621 33.5752 6.86232 33.3564 6.64354C33.1377 6.42477 32.9138 6.21162 32.685 6.00426L26.1613 13.2021Z" fill="url(#paint8_linear_5123_2683)"/>
<path d="M12.1307 15.2833C12.285 15.0258 12.452 14.7759 12.6309 14.5347L4.82828 8.74789C4.45998 9.2445 4.11629 9.75887 3.79844 10.2892L12.1307 15.2833Z" fill="url(#paint9_linear_5123_2683)"/>
<path d="M27.3691 14.5347C27.548 14.7759 27.7149 15.0258 27.8693 15.2833L36.2015 10.2892C35.8837 9.75887 35.54 9.2445 35.1717 8.74789L27.3691 14.5347Z" fill="url(#paint10_linear_5123_2683)"/>
<path d="M11.5237 16.489C11.5813 16.3502 11.6421 16.2129 11.7062 16.0774L2.92462 11.924C2.79261 12.2031 2.66732 12.4857 2.54892 12.7715C2.43051 13.0574 2.31927 13.3458 2.21525 13.6365L11.3617 16.9092C11.4122 16.768 11.4662 16.6279 11.5237 16.489Z" fill="url(#paint11_linear_5123_2683)"/>
<path d="M28.2937 16.0774C28.3579 16.2129 28.4187 16.3502 28.4762 16.489C28.5337 16.6279 28.5878 16.768 28.6383 16.9092L37.7847 13.6365C37.6807 13.3458 37.5695 13.0574 37.4511 12.7716C37.3326 12.4857 37.2073 12.2031 37.0753 11.924L28.2937 16.0774Z" fill="url(#paint12_linear_5123_2683)"/>
<path d="M10.9247 18.6538C10.9687 18.3568 11.0274 18.062 11.1003 17.7707L1.67716 15.4104C1.52694 16.0101 1.40625 16.6168 1.31553 17.2284L10.9247 18.6538Z" fill="url(#paint13_linear_5123_2683)"/>
<path d="M28.8996 17.7707C28.9726 18.062 29.0312 18.3568 29.0753 18.6538L38.6844 17.2284C38.5937 16.6169 38.473 16.0101 38.3228 15.4104L28.8996 17.7707Z" fill="url(#paint14_linear_5123_2683)"/>
<path d="M10.8254 20C10.8254 19.8497 10.8291 19.6996 10.8364 19.5498L1.13384 19.0732C1.11869 19.3816 1.11108 19.6906 1.11108 20C1.11108 22.4805 1.59966 24.9368 2.54892 27.2284C3.49817 29.5202 4.88952 31.6025 6.64352 33.3565C8.3975 35.1105 10.4798 36.5018 12.7715 37.4511C15.0632 38.4003 17.5194 38.8889 20 38.8889C22.4805 38.8889 24.9367 38.4003 27.2285 37.4511C29.5201 36.5018 31.6025 35.1105 33.3564 33.3565C35.1104 31.6025 36.5018 29.5202 37.4511 27.2284C38.4003 24.9368 38.8889 22.4805 38.8889 20C38.8889 19.6906 38.8813 19.3816 38.8661 19.0732L29.1635 19.5498C29.1709 19.6996 29.1746 19.8497 29.1746 20C29.1746 21.2048 28.9373 22.3978 28.4762 23.511C28.0151 24.6241 27.3394 25.6355 26.4874 26.4874C25.6355 27.3394 24.6241 28.0152 23.511 28.4762C22.3978 28.9373 21.2048 29.1746 20 29.1746C18.7952 29.1746 17.6021 28.9373 16.489 28.4762C15.3759 28.0152 14.3645 27.3394 13.5126 26.4874C12.6606 25.6355 11.9848 24.6241 11.5237 23.511C11.0627 22.3978 10.8254 21.2048 10.8254 20Z" fill="url(#paint15_linear_5123_2683)"/>
<path d="M20.0013 10.8251C19.851 10.8251 19.7009 10.8288 19.5511 10.8362L19.3701 7.15153C19.7886 6.97104 20.2177 6.81036 20.6561 6.67075L20.4515 10.8362C20.3017 10.8288 20.1516 10.8251 20.0013 10.8251Z" fill="white"/>
<path d="M22.0321 6.30909L21.3475 10.9244C21.6446 10.9685 21.9393 11.0271 22.2305 11.1001L23.4868 6.08481C22.9939 6.13443 22.5086 6.20965 22.0321 6.30909Z" fill="white"/>
<path d="M25.0054 6.01425L23.0921 11.3614C23.2333 11.4119 23.3734 11.466 23.5123 11.5235C23.6511 11.581 23.7884 11.6418 23.9239 11.706L26.5697 6.11201C26.0563 6.05106 25.5343 6.01799 25.0054 6.01425Z" fill="white"/>
<path d="M28.1563 6.39392L24.718 12.1304C24.9756 12.2848 25.2254 12.4517 25.4666 12.6306L29.7378 6.8716C29.2241 6.68241 28.6963 6.52249 28.1563 6.39392Z" fill="white"/>
<path d="M31.2845 7.55063L26.1626 13.2018C26.2737 13.3025 26.3824 13.406 26.4887 13.5123C26.595 13.6185 26.6985 13.7273 26.7993 13.8384L32.7657 8.43073C32.292 8.10823 31.7974 7.81403 31.2845 7.55063Z" fill="white"/>
<path d="M34.1504 9.50601L27.3704 14.5344C27.5493 14.7756 27.7162 15.0254 27.8706 15.283L35.4082 10.7651C35.016 10.3194 34.5958 9.89873 34.1504 9.50601Z" fill="white"/>
<path d="M36.5096 12.1919L28.295 16.077C28.3592 16.2126 28.42 16.3499 28.4775 16.4887C28.5351 16.6276 28.5891 16.7677 28.6396 16.9089L37.4269 13.7647C37.1548 13.2192 36.848 12.694 36.5096 12.1919Z" fill="white"/>
<path d="M38.1359 15.4572L28.901 17.7704C28.9739 18.0618 29.0326 18.3565 29.0766 18.6535L38.6176 17.2382C38.4957 16.6293 38.3342 16.0348 38.1359 15.4572Z" fill="white"/>
<path d="M38.86 19.0732L29.1649 19.5495C29.1722 19.6993 29.1759 19.8494 29.1759 19.9997C29.1759 21.2045 28.9386 22.3976 28.4775 23.5107C28.0165 24.6238 27.3407 25.6352 26.4887 26.4871C25.6367 27.3391 24.6254 28.0149 23.5123 28.476C22.3992 28.937 21.2061 29.1743 20.0013 29.1743C18.7965 29.1743 17.6034 28.937 16.4903 28.476C15.3772 28.0149 14.3658 27.3391 13.5139 26.4871C12.6619 25.6352 11.9861 24.6238 11.5251 23.5107C11.3426 23.0703 11.1953 22.6175 11.0838 22.1564C12.1208 28.8565 17.9136 33.9855 24.9043 33.9855C32.6285 33.9855 38.8902 27.7239 38.8902 19.9997C38.8902 19.6884 38.88 19.3795 38.86 19.0732Z" fill="white"/>
<path d="M11.0837 17.8432C11.0896 17.8189 11.0956 17.7947 11.1017 17.7704L11.0955 17.7689C11.0915 17.7937 11.0876 17.8184 11.0837 17.8432Z" fill="white"/>
<path d="M11.2689 16.8752L11.363 16.9089C11.4135 16.7677 11.4676 16.6276 11.5251 16.4887C11.5826 16.3499 11.6434 16.2126 11.7076 16.077L11.5045 15.981C11.4164 16.2751 11.3377 16.5733 11.2689 16.8752Z" fill="white"/>
<path d="M11.8055 15.0873L12.132 15.283C12.2864 15.0254 12.4533 14.7756 12.6322 14.5344L12.1758 14.1959C12.0425 14.4878 11.919 14.7851 11.8055 15.0873Z" fill="white"/>
<path d="M12.6196 13.3093L13.2034 13.8384C13.3041 13.7273 13.4076 13.6185 13.5139 13.5123C13.6201 13.406 13.7289 13.3025 13.84 13.2018L13.1415 12.431C12.9572 12.7168 12.7831 13.0097 12.6196 13.3093Z" fill="white"/>
<path d="M13.7464 11.566L14.536 12.6306C14.7772 12.4517 15.027 12.2848 15.2846 12.1304L14.4397 10.7207C14.1979 10.9932 13.9666 11.2752 13.7464 11.566Z" fill="white"/>
<path d="M15.2261 9.90339L16.0786 11.706C16.2142 11.6418 16.3515 11.581 16.4903 11.5235C16.6292 11.466 16.7693 11.4119 16.9105 11.3614L16.11 9.12424C15.8045 9.3716 15.5096 9.6316 15.2261 9.90339Z" fill="white"/>
<path d="M17.0946 8.39572L17.772 11.1001C18.0634 11.0271 18.3581 10.9685 18.6551 10.9244L18.1816 7.73259C17.8086 7.93743 17.446 8.15881 17.0946 8.39572Z" fill="white"/>
<path d="M57.172 29H53.932V11.648H57.172V29ZM67.7963 19.088C67.7163 19.216 67.6323 19.308 67.5443 19.364C67.4563 19.412 67.3443 19.436 67.2083 19.436C67.0643 19.436 66.9083 19.396 66.7403 19.316C66.5803 19.236 66.3923 19.148 66.1763 19.052C65.9603 18.948 65.7123 18.856 65.4323 18.776C65.1603 18.696 64.8363 18.656 64.4603 18.656C63.8763 18.656 63.4163 18.78 63.0803 19.028C62.7523 19.276 62.5883 19.6 62.5883 20C62.5883 20.264 62.6723 20.488 62.8403 20.672C63.0163 20.848 63.2443 21.004 63.5243 21.14C63.8123 21.276 64.1363 21.4 64.4963 21.512C64.8563 21.616 65.2203 21.732 65.5883 21.86C65.9643 21.988 66.3323 22.136 66.6923 22.304C67.0523 22.464 67.3723 22.672 67.6523 22.928C67.9403 23.176 68.1683 23.476 68.3363 23.828C68.5123 24.18 68.6003 24.604 68.6003 25.1C68.6003 25.692 68.4923 26.24 68.2763 26.744C68.0683 27.24 67.7563 27.672 67.3403 28.04C66.9243 28.4 66.4083 28.684 65.7923 28.892C65.1843 29.092 64.4803 29.192 63.6803 29.192C63.2563 29.192 62.8403 29.152 62.4323 29.072C62.0323 29 61.6443 28.896 61.2683 28.76C60.9003 28.624 60.5563 28.464 60.2363 28.28C59.9243 28.096 59.6483 27.896 59.4083 27.68L60.0923 26.552C60.1803 26.416 60.2843 26.312 60.4043 26.24C60.5243 26.168 60.6763 26.132 60.8603 26.132C61.0443 26.132 61.2163 26.184 61.3763 26.288C61.5443 26.392 61.7363 26.504 61.9523 26.624C62.1683 26.744 62.4203 26.856 62.7083 26.96C63.0043 27.064 63.3763 27.116 63.8243 27.116C64.1763 27.116 64.4763 27.076 64.7243 26.996C64.9803 26.908 65.1883 26.796 65.3483 26.66C65.5163 26.524 65.6363 26.368 65.7083 26.192C65.7883 26.008 65.8283 25.82 65.8283 25.628C65.8283 25.34 65.7403 25.104 65.5643 24.92C65.3963 24.736 65.1683 24.576 64.8803 24.44C64.6003 24.304 64.2763 24.184 63.9083 24.08C63.5483 23.968 63.1763 23.848 62.7923 23.72C62.4163 23.592 62.0443 23.444 61.6763 23.276C61.3163 23.1 60.9923 22.88 60.7043 22.616C60.4243 22.352 60.1963 22.028 60.0203 21.644C59.8523 21.26 59.7683 20.796 59.7683 20.252C59.7683 19.748 59.8683 19.268 60.0683 18.812C60.2683 18.356 60.5603 17.96 60.9443 17.624C61.3363 17.28 61.8203 17.008 62.3963 16.808C62.9803 16.6 63.6523 16.496 64.4123 16.496C65.2603 16.496 66.0323 16.636 66.7283 16.916C67.4243 17.196 68.0043 17.564 68.4683 18.02L67.7963 19.088ZM78.3432 19.088C78.2632 19.216 78.1792 19.308 78.0912 19.364C78.0032 19.412 77.8912 19.436 77.7552 19.436C77.6112 19.436 77.4552 19.396 77.2872 19.316C77.1272 19.236 76.9392 19.148 76.7232 19.052C76.5072 18.948 76.2592 18.856 75.9792 18.776C75.7072 18.696 75.3832 18.656 75.0072 18.656C74.4232 18.656 73.9632 18.78 73.6272 19.028C73.2992 19.276 73.1352 19.6 73.1352 20C73.1352 20.264 73.2192 20.488 73.3872 20.672C73.5632 20.848 73.7912 21.004 74.0712 21.14C74.3592 21.276 74.6832 21.4 75.0432 21.512C75.4032 21.616 75.7672 21.732 76.1352 21.86C76.5112 21.988 76.8792 22.136 77.2392 22.304C77.5992 22.464 77.9192 22.672 78.1992 22.928C78.4872 23.176 78.7152 23.476 78.8832 23.828C79.0592 24.18 79.1472 24.604 79.1472 25.1C79.1472 25.692 79.0392 26.24 78.8232 26.744C78.6152 27.24 78.3032 27.672 77.8872 28.04C77.4712 28.4 76.9552 28.684 76.3392 28.892C75.7312 29.092 75.0272 29.192 74.2272 29.192C73.8032 29.192 73.3872 29.152 72.9792 29.072C72.5792 29 72.1912 28.896 71.8152 28.76C71.4472 28.624 71.1032 28.464 70.7832 28.28C70.4712 28.096 70.1952 27.896 69.9552 27.68L70.6392 26.552C70.7272 26.416 70.8312 26.312 70.9512 26.24C71.0712 26.168 71.2232 26.132 71.4072 26.132C71.5912 26.132 71.7632 26.184 71.9232 26.288C72.0912 26.392 72.2832 26.504 72.4992 26.624C72.7152 26.744 72.9672 26.856 73.2552 26.96C73.5512 27.064 73.9232 27.116 74.3712 27.116C74.7232 27.116 75.0232 27.076 75.2712 26.996C75.5272 26.908 75.7352 26.796 75.8952 26.66C76.0632 26.524 76.1832 26.368 76.2552 26.192C76.3352 26.008 76.3752 25.82 76.3752 25.628C76.3752 25.34 76.2872 25.104 76.1112 24.92C75.9432 24.736 75.7152 24.576 75.4272 24.44C75.1472 24.304 74.8232 24.184 74.4552 24.08C74.0952 23.968 73.7232 23.848 73.3392 23.72C72.9632 23.592 72.5912 23.444 72.2232 23.276C71.8632 23.1 71.5392 22.88 71.2512 22.616C70.9712 22.352 70.7432 22.028 70.5672 21.644C70.3992 21.26 70.3152 20.796 70.3152 20.252C70.3152 19.748 70.4152 19.268 70.6152 18.812C70.8152 18.356 71.1072 17.96 71.4912 17.624C71.8832 17.28 72.3672 17.008 72.9432 16.808C73.5272 16.6 74.1992 16.496 74.9592 16.496C75.8072 16.496 76.5792 16.636 77.2752 16.916C77.9712 17.196 78.5512 17.564 79.0152 18.02L78.3432 19.088ZM91.9861 16.688V29H90.1741C89.7821 29 89.5341 28.82 89.4301 28.46L89.2261 27.476C88.7221 27.988 88.1661 28.404 87.5581 28.724C86.9501 29.036 86.2341 29.192 85.4101 29.192C84.7381 29.192 84.1421 29.08 83.6221 28.856C83.1101 28.624 82.6781 28.3 82.3261 27.884C81.9741 27.468 81.7061 26.976 81.5221 26.408C81.3461 25.832 81.2581 25.2 81.2581 24.512V16.688H84.2221V24.512C84.2221 25.264 84.3941 25.848 84.7381 26.264C85.0901 26.672 85.6141 26.876 86.3101 26.876C86.8221 26.876 87.3021 26.764 87.7501 26.54C88.1981 26.308 88.6221 25.992 89.0221 25.592V16.688H91.9861ZM102.857 21.428C102.857 21.044 102.801 20.684 102.689 20.348C102.585 20.004 102.425 19.704 102.209 19.448C101.993 19.192 101.717 18.992 101.381 18.848C101.053 18.696 100.669 18.62 100.229 18.62C99.3729 18.62 98.6969 18.864 98.2009 19.352C97.7129 19.84 97.4009 20.532 97.2649 21.428H102.857ZM97.2049 23.216C97.2529 23.848 97.3649 24.396 97.5409 24.86C97.7169 25.316 97.9489 25.696 98.2369 26C98.5249 26.296 98.8649 26.52 99.2569 26.672C99.6569 26.816 100.097 26.888 100.577 26.888C101.057 26.888 101.469 26.832 101.813 26.72C102.165 26.608 102.469 26.484 102.725 26.348C102.989 26.212 103.217 26.088 103.409 25.976C103.609 25.864 103.801 25.808 103.985 25.808C104.233 25.808 104.417 25.9 104.537 26.084L105.389 27.164C105.061 27.548 104.693 27.872 104.285 28.136C103.877 28.392 103.449 28.6 103.001 28.76C102.561 28.912 102.109 29.02 101.645 29.084C101.189 29.148 100.745 29.18 100.313 29.18C99.4569 29.18 98.6609 29.04 97.9249 28.76C97.1889 28.472 96.5489 28.052 96.0049 27.5C95.4609 26.94 95.0329 26.252 94.7209 25.436C94.4089 24.612 94.2529 23.66 94.2529 22.58C94.2529 21.74 94.3889 20.952 94.6609 20.216C94.9329 19.472 95.3209 18.828 95.8249 18.284C96.3369 17.732 96.9569 17.296 97.6849 16.976C98.4209 16.656 99.2489 16.496 100.169 16.496C100.945 16.496 101.661 16.62 102.317 16.868C102.973 17.116 103.537 17.48 104.009 17.96C104.481 18.432 104.849 19.016 105.113 19.712C105.385 20.4 105.521 21.188 105.521 22.076C105.521 22.524 105.473 22.828 105.377 22.988C105.281 23.14 105.097 23.216 104.825 23.216H97.2049ZM128.677 11.648V29H125.437V21.416H117.289V29H114.049V11.648H117.289V19.112H125.437V11.648H128.677ZM139.63 21.428C139.63 21.044 139.574 20.684 139.462 20.348C139.358 20.004 139.198 19.704 138.982 19.448C138.766 19.192 138.49 18.992 138.154 18.848C137.826 18.696 137.442 18.62 137.002 18.62C136.146 18.62 135.47 18.864 134.974 19.352C134.486 19.84 134.174 20.532 134.038 21.428H139.63ZM133.978 23.216C134.026 23.848 134.138 24.396 134.314 24.86C134.49 25.316 134.722 25.696 135.01 26C135.298 26.296 135.638 26.52 136.03 26.672C136.43 26.816 136.87 26.888 137.35 26.888C137.83 26.888 138.242 26.832 138.586 26.72C138.938 26.608 139.242 26.484 139.498 26.348C139.762 26.212 139.99 26.088 140.182 25.976C140.382 25.864 140.574 25.808 140.758 25.808C141.006 25.808 141.19 25.9 141.31 26.084L142.162 27.164C141.834 27.548 141.466 27.872 141.058 28.136C140.65 28.392 140.222 28.6 139.774 28.76C139.334 28.912 138.882 29.02 138.418 29.084C137.962 29.148 137.518 29.18 137.086 29.18C136.23 29.18 135.434 29.04 134.698 28.76C133.962 28.472 133.322 28.052 132.778 27.5C132.234 26.94 131.806 26.252 131.494 25.436C131.182 24.612 131.026 23.66 131.026 22.58C131.026 21.74 131.162 20.952 131.434 20.216C131.706 19.472 132.094 18.828 132.598 18.284C133.11 17.732 133.73 17.296 134.458 16.976C135.194 16.656 136.022 16.496 136.942 16.496C137.718 16.496 138.434 16.62 139.09 16.868C139.746 17.116 140.31 17.48 140.782 17.96C141.254 18.432 141.622 19.016 141.886 19.712C142.158 20.4 142.294 21.188 142.294 22.076C142.294 22.524 142.246 22.828 142.15 22.988C142.054 23.14 141.87 23.216 141.598 23.216H133.978ZM147.519 11.168V29H144.555V11.168H147.519ZM153.436 25.808C153.772 26.216 154.136 26.504 154.528 26.672C154.928 26.84 155.36 26.924 155.824 26.924C156.272 26.924 156.676 26.84 157.036 26.672C157.396 26.504 157.7 26.248 157.948 25.904C158.204 25.56 158.4 25.128 158.536 24.608C158.672 24.08 158.74 23.46 158.74 22.748C158.74 22.028 158.68 21.42 158.56 20.924C158.448 20.42 158.284 20.012 158.068 19.7C157.852 19.388 157.588 19.16 157.276 19.016C156.972 18.872 156.624 18.8 156.232 18.8C155.616 18.8 155.092 18.932 154.66 19.196C154.228 19.452 153.82 19.816 153.436 20.288V25.808ZM153.28 18.368C153.784 17.8 154.356 17.34 154.996 16.988C155.636 16.636 156.388 16.46 157.252 16.46C157.924 16.46 158.536 16.6 159.088 16.88C159.648 17.16 160.128 17.568 160.528 18.104C160.936 18.632 161.248 19.288 161.464 20.072C161.688 20.848 161.8 21.74 161.8 22.748C161.8 23.668 161.676 24.52 161.428 25.304C161.18 26.088 160.824 26.768 160.36 27.344C159.904 27.92 159.348 28.372 158.692 28.7C158.044 29.02 157.316 29.18 156.508 29.18C155.82 29.18 155.232 29.076 154.744 28.868C154.256 28.652 153.82 28.356 153.436 27.98V33.02H150.472V16.688H152.284C152.668 16.688 152.92 16.868 153.04 17.228L153.28 18.368ZM172.044 21.428C172.044 21.044 171.988 20.684 171.876 20.348C171.772 20.004 171.612 19.704 171.396 19.448C171.18 19.192 170.904 18.992 170.568 18.848C170.24 18.696 169.856 18.62 169.416 18.62C168.56 18.62 167.884 18.864 167.388 19.352C166.9 19.84 166.588 20.532 166.452 21.428H172.044ZM166.392 23.216C166.44 23.848 166.552 24.396 166.728 24.86C166.904 25.316 167.136 25.696 167.424 26C167.712 26.296 168.052 26.52 168.444 26.672C168.844 26.816 169.284 26.888 169.764 26.888C170.244 26.888 170.656 26.832 171 26.72C171.352 26.608 171.656 26.484 171.912 26.348C172.176 26.212 172.404 26.088 172.596 25.976C172.796 25.864 172.988 25.808 173.172 25.808C173.42 25.808 173.604 25.9 173.724 26.084L174.576 27.164C174.248 27.548 173.88 27.872 173.472 28.136C173.064 28.392 172.636 28.6 172.188 28.76C171.748 28.912 171.296 29.02 170.832 29.084C170.376 29.148 169.932 29.18 169.5 29.18C168.644 29.18 167.848 29.04 167.112 28.76C166.376 28.472 165.736 28.052 165.192 27.5C164.648 26.94 164.22 26.252 163.908 25.436C163.596 24.612 163.44 23.66 163.44 22.58C163.44 21.74 163.576 20.952 163.848 20.216C164.12 19.472 164.508 18.828 165.012 18.284C165.524 17.732 166.144 17.296 166.872 16.976C167.608 16.656 168.436 16.496 169.356 16.496C170.132 16.496 170.848 16.62 171.504 16.868C172.16 17.116 172.724 17.48 173.196 17.96C173.668 18.432 174.036 19.016 174.3 19.712C174.572 20.4 174.708 21.188 174.708 22.076C174.708 22.524 174.66 22.828 174.564 22.988C174.468 23.14 174.284 23.216 174.012 23.216H166.392ZM179.729 18.824C180.113 18.088 180.569 17.512 181.097 17.096C181.625 16.672 182.249 16.46 182.969 16.46C183.537 16.46 183.993 16.584 184.337 16.832L184.145 19.052C184.105 19.196 184.045 19.3 183.965 19.364C183.893 19.42 183.793 19.448 183.665 19.448C183.545 19.448 183.365 19.428 183.125 19.388C182.893 19.348 182.665 19.328 182.441 19.328C182.113 19.328 181.821 19.376 181.565 19.472C181.309 19.568 181.077 19.708 180.869 19.892C180.669 20.068 180.489 20.284 180.329 20.54C180.177 20.796 180.033 21.088 179.897 21.416V29H176.933V16.688H178.673C178.977 16.688 179.189 16.744 179.309 16.856C179.429 16.96 179.509 17.152 179.549 17.432L179.729 18.824Z" fill="white"/>
</g>
<defs>
<linearGradient id="paint0_linear_5123_2683" x1="-4.3667" y1="-3.23334" x2="36.7167" y2="38.8889" gradientUnits="userSpaceOnUse">
<stop offset="0.0363151" stop-color="#E9E9E9"/>
<stop offset="1" stop-color="#A0A0A1"/>
</linearGradient>
<linearGradient id="paint1_linear_5123_2683" x1="-4.3667" y1="-3.23334" x2="36.7167" y2="38.8889" gradientUnits="userSpaceOnUse">
<stop offset="0.0363151" stop-color="#E9E9E9"/>
<stop offset="1" stop-color="#A0A0A1"/>
</linearGradient>
<linearGradient id="paint2_linear_5123_2683" x1="-4.3667" y1="-3.23334" x2="36.7167" y2="38.8889" gradientUnits="userSpaceOnUse">
<stop offset="0.0363151" stop-color="#E9E9E9"/>
<stop offset="1" stop-color="#A0A0A1"/>
</linearGradient>
<linearGradient id="paint3_linear_5123_2683" x1="-4.3667" y1="-3.23334" x2="36.7167" y2="38.8889" gradientUnits="userSpaceOnUse">
<stop offset="0.0363151" stop-color="#E9E9E9"/>
<stop offset="1" stop-color="#A0A0A1"/>
</linearGradient>
<linearGradient id="paint4_linear_5123_2683" x1="-4.3667" y1="-3.23334" x2="36.7167" y2="38.8889" gradientUnits="userSpaceOnUse">
<stop offset="0.0363151" stop-color="#E9E9E9"/>
<stop offset="1" stop-color="#A0A0A1"/>
</linearGradient>
<linearGradient id="paint5_linear_5123_2683" x1="-4.3667" y1="-3.23334" x2="36.7167" y2="38.8889" gradientUnits="userSpaceOnUse">
<stop offset="0.0363151" stop-color="#E9E9E9"/>
<stop offset="1" stop-color="#A0A0A1"/>
</linearGradient>
<linearGradient id="paint6_linear_5123_2683" x1="-4.3667" y1="-3.23334" x2="36.7167" y2="38.8889" gradientUnits="userSpaceOnUse">
<stop offset="0.0363151" stop-color="#E9E9E9"/>
<stop offset="1" stop-color="#A0A0A1"/>
</linearGradient>
<linearGradient id="paint7_linear_5123_2683" x1="-4.3667" y1="-3.23334" x2="36.7167" y2="38.8889" gradientUnits="userSpaceOnUse">
<stop offset="0.0363151" stop-color="#E9E9E9"/>
<stop offset="1" stop-color="#A0A0A1"/>
</linearGradient>
<linearGradient id="paint8_linear_5123_2683" x1="-4.3667" y1="-3.23334" x2="36.7167" y2="38.8889" gradientUnits="userSpaceOnUse">
<stop offset="0.0363151" stop-color="#E9E9E9"/>
<stop offset="1" stop-color="#A0A0A1"/>
</linearGradient>
<linearGradient id="paint9_linear_5123_2683" x1="-4.3667" y1="-3.23334" x2="36.7167" y2="38.8889" gradientUnits="userSpaceOnUse">
<stop offset="0.0363151" stop-color="#E9E9E9"/>
<stop offset="1" stop-color="#A0A0A1"/>
</linearGradient>
<linearGradient id="paint10_linear_5123_2683" x1="-4.3667" y1="-3.23334" x2="36.7167" y2="38.8889" gradientUnits="userSpaceOnUse">
<stop offset="0.0363151" stop-color="#E9E9E9"/>
<stop offset="1" stop-color="#A0A0A1"/>
</linearGradient>
<linearGradient id="paint11_linear_5123_2683" x1="-4.3667" y1="-3.23334" x2="36.7167" y2="38.8889" gradientUnits="userSpaceOnUse">
<stop offset="0.0363151" stop-color="#E9E9E9"/>
<stop offset="1" stop-color="#A0A0A1"/>
</linearGradient>
<linearGradient id="paint12_linear_5123_2683" x1="-4.3667" y1="-3.23334" x2="36.7167" y2="38.8889" gradientUnits="userSpaceOnUse">
<stop offset="0.0363151" stop-color="#E9E9E9"/>
<stop offset="1" stop-color="#A0A0A1"/>
</linearGradient>
<linearGradient id="paint13_linear_5123_2683" x1="-4.3667" y1="-3.23334" x2="36.7167" y2="38.8889" gradientUnits="userSpaceOnUse">
<stop offset="0.0363151" stop-color="#E9E9E9"/>
<stop offset="1" stop-color="#A0A0A1"/>
</linearGradient>
<linearGradient id="paint14_linear_5123_2683" x1="-4.3667" y1="-3.23334" x2="36.7167" y2="38.8889" gradientUnits="userSpaceOnUse">
<stop offset="0.0363151" stop-color="#E9E9E9"/>
<stop offset="1" stop-color="#A0A0A1"/>
</linearGradient>
<linearGradient id="paint15_linear_5123_2683" x1="-4.3667" y1="-3.23334" x2="36.7167" y2="38.8889" gradientUnits="userSpaceOnUse">
<stop offset="0.0363151" stop-color="#E9E9E9"/>
<stop offset="1" stop-color="#A0A0A1"/>
</linearGradient>
<clipPath id="clip0_5123_2683">
<rect width="185" height="40" fill="white"/>
</clipPath>
</defs>
</svg>
